<svg width="721" height="993" viewBox="0 0 721 993" fill="none" xmlns="http://www.w3.org/2000/svg">
<path d="M126.966 410.367C145.629 308.902 229.638 233.017 291.357 232.739C360.909 232.422 420.177 296.291 466.893 301.932C508.094 306.916 559.115 234.269 632.493 252.599C692.109 267.494 725.229 374.381 715.293 442.183C696.861 568.016 649.053 643.166 582.283 657.684C553.038 664.059 539.227 652.957 524.853 656.194C460.881 670.553 417.61 766.735 279.765 775.354C173.781 781.848 86.4929 630.376 126.966 410.367Z" fill="#007EA7"/>
<path opacity="0.9" d="M126.966 410.367C145.629 308.902 229.638 233.017 291.357 232.739C360.909 232.422 420.177 296.291 466.893 301.932C508.094 306.916 559.115 234.269 632.493 252.599C692.109 267.494 725.229 374.381 715.293 442.183C696.861 568.016 649.053 643.166 582.283 657.684C553.038 664.059 539.227 652.957 524.853 656.194C460.881 670.553 417.61 766.735 279.765 775.354C173.781 781.848 86.4929 630.376 126.966 410.367Z" fill="white"/>
<path d="M414 848.042C591.328 848.042 735.082 837.977 735.082 825.56C735.082 813.144 591.328 803.079 414 803.079C236.671 803.079 92.918 813.144 92.918 825.56C92.918 837.977 236.671 848.042 414 848.042Z" fill="#F5F5F5"/>
<path d="M601.874 289.618H547.954L509.866 812.433H563.786C571.353 812.257 578.606 808.768 584.176 802.622C589.746 796.476 593.249 788.098 594.024 779.068L627.293 322.963C627.68 318.714 627.307 314.414 626.199 310.351C625.091 306.288 623.274 302.554 620.869 299.399C618.464 296.244 615.526 293.74 612.25 292.053C608.975 290.367 605.437 289.537 601.874 289.618Z" fill="#007EA7"/>
<path d="M590.877 289.618H408.386C400.818 289.788 393.564 293.273 387.99 299.415C382.417 305.558 378.91 313.933 378.131 322.963L344.862 779.068C344.479 783.314 344.853 787.61 345.96 791.67C347.066 795.73 348.88 799.461 351.281 802.616C353.682 805.772 356.614 808.279 359.884 809.971C363.155 811.663 366.687 812.502 370.249 812.432H552.723C560.281 812.238 567.52 808.741 573.079 802.597C578.638 796.453 582.135 788.086 582.912 779.068L616.181 322.963C616.566 318.725 616.196 314.437 615.095 310.384C613.994 306.331 612.188 302.604 609.795 299.452C607.403 296.299 604.479 293.792 601.218 292.096C597.956 290.401 594.432 289.556 590.877 289.618Z" fill="#007EA7"/>
<path opacity="0.3" d="M590.877 289.618H408.386C400.818 289.788 393.564 293.273 387.99 299.415C382.417 305.558 378.91 313.933 378.131 322.963L344.862 779.068C344.479 783.314 344.853 787.61 345.96 791.67C347.066 795.73 348.88 799.461 351.281 802.616C353.682 805.772 356.614 808.279 359.884 809.971C363.155 811.663 366.687 812.502 370.249 812.432H552.723C560.281 812.238 567.52 808.741 573.079 802.597C578.638 796.453 582.135 788.086 582.912 779.068L616.181 322.963C616.566 318.725 616.196 314.437 615.095 310.384C613.994 306.331 612.188 302.604 609.795 299.452C607.403 296.299 604.479 293.792 601.218 292.096C597.956 290.401 594.432 289.556 590.877 289.618Z" fill="white"/>
<path opacity="0.4" d="M590.099 300.303H541.976C540.541 300.317 539.143 300.847 537.962 301.824C536.781 302.801 535.872 304.181 535.352 305.784C533.454 311.675 530.136 316.753 525.82 320.372C521.505 323.99 516.389 325.985 511.124 326.101H482.741C477.783 326.221 472.945 324.264 469.061 320.566C465.176 316.868 462.489 311.662 461.461 305.844C461.187 304.27 460.463 302.86 459.413 301.859C458.364 300.858 457.055 300.329 455.715 300.363H407.608C402.464 300.472 397.532 302.838 393.745 307.014C389.958 311.189 387.579 316.885 387.057 323.023L353.771 779.128C353.505 782.016 353.755 784.938 354.505 787.701C355.255 790.464 356.487 793.003 358.12 795.15C359.753 797.296 361.749 799 363.975 800.148C366.2 801.296 368.605 801.862 371.027 801.808H553.518C558.663 801.694 563.595 799.323 567.382 795.144C571.169 790.965 573.548 785.267 574.069 779.128L607.338 323.023C607.609 320.134 607.364 317.208 606.617 314.442C605.87 311.676 604.64 309.132 603.008 306.982C601.376 304.831 599.381 303.123 597.155 301.971C594.929 300.82 592.523 300.251 590.099 300.303Z" fill="white"/>
<path d="M544.626 548.136H416.915C416.037 548.153 415.166 547.947 414.36 547.53C413.554 547.113 412.831 546.495 412.239 545.718C411.647 544.94 411.2 544.021 410.927 543.02C410.654 542.019 410.561 540.961 410.655 539.914L411.301 531.136C411.491 528.91 412.354 526.845 413.727 525.33C415.1 523.815 416.888 522.955 418.753 522.914H546.48C547.358 522.896 548.229 523.103 549.035 523.52C549.841 523.937 550.564 524.555 551.156 525.332C551.748 526.11 552.195 527.029 552.468 528.03C552.741 529.03 552.834 530.089 552.74 531.136L552.111 539.914C551.917 542.145 551.048 544.213 549.669 545.728C548.29 547.243 546.496 548.1 544.626 548.136Z" fill="white"/>
<path d="M541.877 585.87H414.149C413.272 585.888 412.402 585.681 411.597 585.264C410.791 584.847 410.069 584.229 409.478 583.451C408.888 582.673 408.442 581.753 408.171 580.753C407.9 579.752 407.81 578.694 407.906 577.648L408.535 568.87C408.729 566.646 409.593 564.583 410.965 563.069C412.337 561.555 414.123 560.694 415.987 560.648H543.715C544.592 560.63 545.463 560.837 546.269 561.254C547.075 561.671 547.798 562.289 548.39 563.066C548.982 563.844 549.43 564.763 549.703 565.764C549.976 566.764 550.068 567.823 549.974 568.87L549.329 577.648C549.135 579.872 548.271 581.935 546.899 583.449C545.527 584.963 543.741 585.824 541.877 585.87Z" fill="white"/>
<path opacity="0.1" d="M505.825 308.843C505.615 311.314 504.656 313.607 503.13 315.287C501.604 316.968 499.617 317.918 497.545 317.959C496.572 317.98 495.606 317.752 494.711 317.29C493.817 316.828 493.015 316.144 492.358 315.281C491.702 314.419 491.206 313.398 490.904 312.288C490.602 311.178 490.501 310.004 490.607 308.843C490.817 306.371 491.776 304.078 493.302 302.398C494.828 300.718 496.815 299.768 498.887 299.727C499.86 299.706 500.826 299.934 501.721 300.396C502.615 300.857 503.417 301.542 504.074 302.405C504.73 303.267 505.226 304.287 505.528 305.397C505.83 306.507 505.931 307.682 505.825 308.843Z" fill="black"/>
<path opacity="0.1" d="M502.381 308.843C502.264 310.192 501.74 311.443 500.907 312.362C500.075 313.28 498.991 313.801 497.86 313.828C497.328 313.84 496.799 313.716 496.31 313.464C495.82 313.212 495.382 312.837 495.023 312.365C494.664 311.893 494.393 311.335 494.228 310.728C494.064 310.12 494.009 309.478 494.068 308.843C494.181 307.492 494.704 306.238 495.538 305.319C496.371 304.4 497.457 303.88 498.589 303.858C499.121 303.849 499.648 303.975 500.136 304.228C500.624 304.482 501.062 304.856 501.42 305.327C501.779 305.798 502.05 306.355 502.215 306.961C502.381 307.567 502.437 308.209 502.381 308.843Z" fill="black"/>
<g opacity="0.8">
<path d="M567.627 324.056C567.341 324.06 567.058 323.992 566.795 323.856C566.533 323.72 566.298 323.518 566.106 323.265C565.913 323.011 565.768 322.712 565.679 322.386C565.59 322.06 565.56 321.715 565.59 321.375L565.954 316.489C566.015 315.767 566.295 315.097 566.741 314.606C567.187 314.116 567.767 313.839 568.372 313.828C568.656 313.823 568.938 313.891 569.199 314.026C569.46 314.161 569.695 314.361 569.887 314.612C570.079 314.863 570.225 315.16 570.315 315.484C570.405 315.807 570.437 316.15 570.409 316.489L570.045 321.375C569.984 322.098 569.705 322.771 569.26 323.265C568.814 323.758 568.233 324.04 567.627 324.056Z" fill="white"/>
<path d="M585.445 324.056C585.16 324.06 584.876 323.992 584.614 323.856C584.352 323.72 584.116 323.518 583.924 323.265C583.731 323.011 583.586 322.712 583.497 322.386C583.408 322.06 583.378 321.715 583.408 321.375L584.253 309.915C584.314 309.193 584.594 308.523 585.04 308.033C585.485 307.542 586.066 307.265 586.671 307.254C586.955 307.25 587.237 307.317 587.498 307.452C587.759 307.587 587.993 307.787 588.186 308.038C588.378 308.29 588.524 308.587 588.614 308.91C588.704 309.233 588.736 309.576 588.708 309.915L587.863 321.375C587.803 322.098 587.523 322.771 587.078 323.265C586.633 323.758 586.052 324.04 585.445 324.056Z" fill="white"/>
<path d="M576.536 324.056C576.25 324.06 575.967 323.992 575.705 323.856C575.442 323.72 575.207 323.518 575.015 323.265C574.822 323.011 574.677 322.712 574.588 322.386C574.499 322.06 574.469 321.715 574.499 321.375L575.095 313.212C575.156 312.485 575.438 311.81 575.887 311.316C576.336 310.821 576.92 310.542 577.53 310.531C577.815 310.526 578.098 310.594 578.359 310.73C578.621 310.867 578.855 311.069 579.046 311.323C579.238 311.576 579.382 311.876 579.468 312.202C579.555 312.528 579.583 312.872 579.55 313.212L578.954 321.375C578.893 322.098 578.614 322.771 578.169 323.265C577.723 323.758 577.143 324.04 576.536 324.056Z" fill="white"/>
</g>
<g opacity="0.8">
<path d="M415.06 324.056H403.865C403.704 324.06 403.544 324.022 403.396 323.946C403.248 323.87 403.116 323.756 403.007 323.613C402.899 323.47 402.817 323.301 402.768 323.117C402.719 322.933 402.704 322.738 402.723 322.546L403.236 315.337C403.272 314.928 403.432 314.549 403.685 314.271C403.938 313.993 404.267 313.835 404.611 313.828H415.805C415.966 313.824 416.126 313.861 416.274 313.937C416.422 314.014 416.555 314.127 416.663 314.27C416.772 314.413 416.853 314.582 416.902 314.767C416.951 314.951 416.967 315.145 416.948 315.337L416.418 322.546C416.389 322.956 416.234 323.337 415.983 323.616C415.731 323.895 415.402 324.052 415.06 324.056Z" fill="white"/>
<path d="M420.243 322.089C420.082 322.093 419.921 322.056 419.772 321.98C419.623 321.904 419.49 321.79 419.38 321.648C419.271 321.505 419.188 321.336 419.137 321.152C419.086 320.968 419.068 320.773 419.084 320.58L419.332 317.283C419.365 316.872 419.524 316.491 419.778 316.212C420.032 315.933 420.363 315.777 420.707 315.774C420.868 315.77 421.028 315.807 421.176 315.883C421.324 315.96 421.457 316.073 421.565 316.216C421.673 316.359 421.755 316.529 421.804 316.713C421.853 316.897 421.869 317.091 421.85 317.283L421.618 320.58C421.581 320.989 421.422 321.369 421.169 321.647C420.915 321.925 420.586 322.082 420.243 322.089Z" fill="white"/>
</g>
<path d="M523.582 490.404C545.866 464.821 548.089 424.234 528.546 399.752C509.003 375.269 475.096 376.162 452.812 401.745C430.528 427.329 428.305 467.915 447.848 492.398C467.391 516.88 501.298 515.988 523.582 490.404Z" fill="white"/>
<path d="M488.388 443.633C474.345 443.633 462.471 450.047 461.461 463.969L460.335 479.44H511.224L512.35 463.969C513.36 450.047 502.447 443.633 488.388 443.633Z" fill="#007EA7"/>
<path d="M488.851 437.258C495.376 437.258 498.39 430.922 498.953 423.097C499.516 415.273 497.446 408.937 490.921 408.937C484.397 408.937 481.399 415.292 480.82 423.097C480.24 430.902 482.327 437.258 488.851 437.258Z" fill="#007EA7"/>
<path d="M538.796 534.989C535.335 534.989 532.404 536.577 532.172 540.013L531.891 543.846H544.46L544.741 540.013C544.973 536.577 542.274 534.989 538.796 534.989Z" fill="#007EA7"/>
<path d="M538.912 533.42C540.568 533.42 541.264 531.851 541.413 529.924C541.562 527.998 541.032 526.429 539.425 526.429C537.819 526.429 537.074 527.998 536.925 529.924C536.776 531.851 537.306 533.42 538.912 533.42Z" fill="#007EA7"/>
<path d="M500.112 623.604H450.432C449.085 623.633 447.748 623.318 446.511 622.68C445.273 622.041 444.163 621.094 443.254 619.901C442.346 618.708 441.659 617.296 441.241 615.76C440.822 614.224 440.681 612.599 440.827 610.993C441.122 607.578 442.448 604.41 444.556 602.087C446.664 599.764 449.408 598.446 452.27 598.382H501.95C503.297 598.356 504.632 598.673 505.869 599.313C507.105 599.952 508.214 600.9 509.122 602.092C510.03 603.284 510.717 604.694 511.136 606.229C511.556 607.763 511.698 609.387 511.555 610.993C511.264 614.41 509.939 617.58 507.83 619.904C505.721 622.228 502.976 623.544 500.112 623.604Z" fill="#007EA7"/>
<path d="M494.101 764.253H440.927C439.5 764.299 438.082 763.976 436.769 763.306C435.456 762.636 434.278 761.635 433.317 760.371C432.355 759.106 431.632 757.608 431.196 755.979C430.76 754.349 430.623 752.626 430.792 750.926L434.187 704.414C434.49 700.806 435.887 697.457 438.112 695.001C440.337 692.545 443.235 691.153 446.259 691.088H499.45C500.872 691.058 502.284 691.392 503.591 692.067C504.897 692.743 506.069 693.744 507.028 695.005C507.987 696.266 508.711 697.757 509.151 699.379C509.592 701.002 509.74 702.718 509.584 704.414L506.19 750.926C505.879 754.535 504.478 757.882 502.251 760.337C500.024 762.792 497.125 764.184 494.101 764.253Z" fill="#007EA7"/>
<g opacity="0.6">
<path d="M477.706 716.152C477.793 715.137 477.699 714.111 477.431 713.143C477.163 712.174 476.726 711.285 476.15 710.534C475.574 709.784 474.872 709.188 474.09 708.787C473.307 708.386 472.463 708.188 471.612 708.208C469.801 708.239 468.061 709.064 466.722 710.527C465.383 711.991 464.536 713.991 464.342 716.152C464.237 717.36 464.386 718.581 464.777 719.701C465.168 720.822 465.787 721.807 466.578 722.566L465.419 738.593C465.362 739.2 465.414 739.815 465.572 740.396C465.729 740.977 465.988 741.511 466.331 741.962C466.675 742.414 467.094 742.772 467.562 743.013C468.031 743.254 468.536 743.372 469.045 743.36C470.125 743.332 471.158 742.833 471.951 741.955C472.744 741.077 473.242 739.881 473.351 738.593L474.527 722.566C475.414 721.839 476.158 720.888 476.707 719.78C477.257 718.672 477.597 717.434 477.706 716.152Z" fill="white"/>
</g>
<path d="M499.913 700.78H493.057L494.713 677.762C495.003 674.568 494.722 671.336 493.89 668.281C493.058 665.227 491.694 662.419 489.889 660.045C488.083 657.671 485.877 655.785 483.417 654.511C480.957 653.238 478.299 652.607 475.62 652.659C469.926 652.793 464.47 655.419 460.279 660.043C456.088 664.666 453.451 670.969 452.866 677.762L451.21 700.78H444.354L446.01 677.762C446.782 668.747 450.278 660.382 455.84 654.246C461.402 648.11 468.644 644.628 476.199 644.457C479.755 644.384 483.284 645.22 486.55 646.908C489.816 648.596 492.745 651.098 495.143 654.248C497.541 657.398 499.353 661.124 500.458 665.178C501.563 669.232 501.936 673.522 501.553 677.762L499.913 700.78Z" fill="#007EA7"/>
<path d="M539.641 570.24L539.856 567.996C539.9 567.476 539.853 566.95 539.716 566.454C539.579 565.957 539.357 565.501 539.063 565.115C538.769 564.729 538.41 564.421 538.011 564.213C537.611 564.004 537.179 563.899 536.743 563.905C535.815 563.928 534.926 564.356 534.243 565.11C533.56 565.863 533.13 566.889 533.033 567.996L532.868 570.2C532.497 570.213 532.143 570.387 531.871 570.691C531.6 570.994 531.43 571.406 531.394 571.849L530.963 577.807C530.942 578.015 530.958 578.226 531.011 578.426C531.064 578.626 531.153 578.81 531.271 578.965C531.389 579.12 531.534 579.242 531.695 579.323C531.856 579.404 532.031 579.443 532.205 579.435H539.028C539.398 579.428 539.752 579.258 540.023 578.958C540.295 578.657 540.466 578.248 540.502 577.807L540.933 571.849C540.947 571.638 540.924 571.427 540.864 571.228C540.805 571.029 540.711 570.847 540.589 570.695C540.467 570.543 540.319 570.424 540.156 570.345C539.992 570.267 539.817 570.231 539.641 570.24ZM536.544 564.957C536.873 564.953 537.198 565.031 537.5 565.188C537.801 565.344 538.072 565.575 538.294 565.866C538.516 566.156 538.684 566.5 538.788 566.874C538.892 567.248 538.928 567.644 538.896 568.036L538.73 570.24H533.596L533.762 568.036C533.834 567.205 534.157 566.434 534.669 565.867C535.181 565.3 535.848 564.977 536.544 564.957Z" fill="#007EA7"/>
<path d="M436.936 572.604L434.551 572.008C434.485 571.991 434.422 571.957 434.368 571.908C434.315 571.858 434.271 571.795 434.241 571.722C434.21 571.649 434.194 571.569 434.194 571.488C434.193 571.407 434.207 571.327 434.236 571.253L435.23 568.433C435.271 568.311 435.275 568.176 435.241 568.051C435.207 567.926 435.137 567.819 435.044 567.75C434.951 567.681 434.84 567.654 434.732 567.673C434.623 567.693 434.524 567.758 434.452 567.857L432.647 570.081C432.603 570.147 432.548 570.201 432.485 570.238C432.422 570.274 432.353 570.293 432.282 570.293C432.212 570.293 432.143 570.274 432.08 570.238C432.017 570.201 431.961 570.147 431.918 570.081L430.444 567.857C430.13 567.38 429.451 567.857 429.567 568.433L430.146 571.253C430.163 571.335 430.166 571.421 430.154 571.505C430.142 571.588 430.115 571.668 430.077 571.739C430.038 571.81 429.987 571.87 429.928 571.916C429.868 571.963 429.802 571.994 429.732 572.008L427.265 572.604C426.735 572.723 426.669 573.616 427.182 573.736L429.567 574.331C429.633 574.346 429.696 574.38 429.75 574.43C429.804 574.48 429.847 574.544 429.876 574.618C429.905 574.691 429.919 574.772 429.917 574.853C429.915 574.935 429.897 575.015 429.865 575.086L428.904 577.926C428.863 578.048 428.859 578.183 428.893 578.308C428.927 578.433 428.997 578.54 429.09 578.609C429.183 578.678 429.294 578.705 429.403 578.685C429.511 578.666 429.61 578.601 429.682 578.502L431.487 576.278C431.534 576.217 431.59 576.169 431.653 576.137C431.716 576.104 431.783 576.087 431.852 576.087C431.92 576.087 431.988 576.104 432.051 576.137C432.113 576.169 432.17 576.217 432.216 576.278L433.69 578.502C434.005 578.979 434.684 578.502 434.551 577.926L433.971 575.106C433.947 574.938 433.978 574.765 434.059 574.624C434.139 574.483 434.262 574.385 434.402 574.351L436.869 573.755C437.383 573.616 437.449 572.723 436.936 572.604Z" fill="#263238"/>
<path d="M452.601 572.604L450.217 572.008C450.15 571.991 450.088 571.957 450.034 571.908C449.98 571.858 449.937 571.795 449.906 571.722C449.876 571.649 449.86 571.569 449.859 571.488C449.858 571.407 449.873 571.327 449.902 571.253L450.896 568.433C450.937 568.311 450.941 568.176 450.907 568.051C450.873 567.926 450.803 567.819 450.71 567.75C450.616 567.681 450.506 567.654 450.397 567.673C450.289 567.693 450.189 567.758 450.117 567.857L448.312 570.081C448.269 570.147 448.214 570.201 448.15 570.238C448.087 570.274 448.018 570.293 447.948 570.293C447.878 570.293 447.808 570.274 447.745 570.238C447.682 570.201 447.627 570.147 447.584 570.081L446.11 567.857C445.795 567.38 445.116 567.857 445.249 568.433L445.828 571.253C445.843 571.337 445.843 571.423 445.829 571.506C445.815 571.59 445.787 571.67 445.746 571.74C445.706 571.81 445.655 571.87 445.595 571.916C445.535 571.962 445.468 571.993 445.398 572.008L442.93 572.604C442.4 572.723 442.334 573.616 442.847 573.736L445.232 574.331C445.298 574.348 445.361 574.382 445.415 574.431C445.468 574.481 445.512 574.544 445.542 574.617C445.573 574.69 445.589 574.77 445.59 574.851C445.59 574.932 445.576 575.013 445.547 575.086L444.553 577.906C444.512 578.028 444.508 578.163 444.542 578.288C444.576 578.413 444.646 578.52 444.739 578.589C444.832 578.658 444.943 578.685 445.052 578.666C445.16 578.646 445.259 578.581 445.331 578.482L447.136 576.258C447.183 576.198 447.239 576.15 447.302 576.117C447.365 576.084 447.432 576.067 447.501 576.067C447.569 576.067 447.637 576.084 447.7 576.117C447.762 576.15 447.819 576.198 447.865 576.258L449.339 578.482C449.654 578.959 450.333 578.482 450.217 577.906L449.637 575.086C449.622 575.004 449.622 574.919 449.635 574.836C449.648 574.754 449.674 574.675 449.713 574.605C449.751 574.535 449.801 574.475 449.859 574.428C449.917 574.381 449.982 574.348 450.051 574.331L452.518 573.736C453.048 573.616 453.115 572.723 452.601 572.604Z" fill="#263238"/>
<path d="M468.267 572.603L465.899 572.008C465.831 571.995 465.766 571.963 465.711 571.915C465.655 571.866 465.61 571.802 465.579 571.728C465.548 571.654 465.532 571.572 465.533 571.49C465.534 571.407 465.552 571.326 465.585 571.253L466.578 568.433C466.642 568.306 466.661 568.155 466.632 568.011C466.602 567.868 466.526 567.745 466.421 567.668C466.315 567.592 466.189 567.569 466.069 567.604C465.95 567.64 465.847 567.73 465.783 567.857L463.995 570.081C463.95 570.148 463.893 570.201 463.829 570.238C463.764 570.275 463.694 570.294 463.622 570.294C463.551 570.294 463.48 570.275 463.416 570.238C463.351 570.201 463.295 570.148 463.25 570.081L461.776 567.857C461.461 567.38 460.782 567.857 460.915 568.433L461.494 571.253C461.509 571.335 461.51 571.42 461.497 571.503C461.484 571.585 461.457 571.664 461.419 571.734C461.38 571.804 461.33 571.864 461.272 571.911C461.214 571.958 461.149 571.991 461.08 572.008L458.613 572.603C458.083 572.723 458.017 573.616 458.53 573.736L460.898 574.331C460.965 574.348 461.027 574.382 461.081 574.431C461.134 574.481 461.178 574.544 461.209 574.617C461.239 574.69 461.255 574.77 461.256 574.851C461.256 574.932 461.242 575.013 461.213 575.086L460.219 577.906C460.155 578.032 460.136 578.184 460.166 578.327C460.195 578.471 460.271 578.594 460.376 578.671C460.482 578.747 460.608 578.77 460.728 578.735C460.847 578.699 460.95 578.608 461.014 578.482L462.803 576.258C462.849 576.198 462.905 576.15 462.968 576.117C463.031 576.084 463.098 576.067 463.167 576.067C463.235 576.067 463.303 576.084 463.366 576.117C463.428 576.15 463.485 576.198 463.531 576.258L465.022 578.482C465.336 578.959 466.015 578.482 465.883 577.906L465.303 575.086C465.278 574.921 465.307 574.75 465.384 574.609C465.461 574.469 465.581 574.369 465.717 574.331L468.185 573.736C468.648 573.616 468.781 572.723 468.267 572.603Z" fill="#263238"/>
<path d="M483.95 572.604L481.565 572.008C481.499 571.991 481.436 571.957 481.382 571.908C481.329 571.858 481.285 571.795 481.255 571.722C481.224 571.649 481.208 571.569 481.207 571.488C481.207 571.407 481.221 571.327 481.25 571.253L482.244 568.433C482.285 568.311 482.289 568.176 482.255 568.051C482.221 567.926 482.151 567.819 482.058 567.75C481.965 567.681 481.854 567.654 481.746 567.673C481.637 567.693 481.538 567.758 481.466 567.857L479.661 570.081C479.617 570.147 479.562 570.201 479.499 570.238C479.436 570.274 479.366 570.293 479.296 570.293C479.226 570.293 479.157 570.274 479.094 570.238C479.031 570.201 478.975 570.147 478.932 570.081L477.458 567.857C477.144 567.38 476.465 567.857 476.58 568.433L477.16 571.253C477.177 571.335 477.18 571.421 477.168 571.505C477.156 571.588 477.129 571.668 477.09 571.739C477.052 571.81 477.001 571.87 476.942 571.916C476.882 571.963 476.816 571.994 476.746 572.008L474.279 572.604C473.749 572.723 473.682 573.616 474.279 573.736L476.663 574.331C476.73 574.346 476.793 574.38 476.846 574.43C476.9 574.48 476.943 574.544 476.972 574.618C477.002 574.691 477.016 574.772 477.014 574.853C477.012 574.935 476.994 575.015 476.961 575.086L475.984 577.906C475.943 578.028 475.939 578.163 475.973 578.288C476.007 578.413 476.077 578.52 476.17 578.589C476.264 578.658 476.374 578.685 476.483 578.666C476.591 578.646 476.69 578.581 476.763 578.482L478.568 576.258C478.614 576.198 478.671 576.15 478.733 576.117C478.796 576.084 478.864 576.067 478.932 576.067C479 576.067 479.068 576.084 479.131 576.117C479.193 576.15 479.25 576.198 479.296 576.258L480.77 578.482C481.085 578.959 481.764 578.482 481.631 577.906L481.052 575.086C481.027 574.918 481.059 574.745 481.139 574.604C481.219 574.463 481.343 574.365 481.482 574.331L483.95 573.736C484.397 573.616 484.463 572.723 483.95 572.604Z" fill="#263238"/>
<path d="M499.615 572.604L497.231 572.008C497.164 571.991 497.102 571.957 497.048 571.908C496.994 571.858 496.951 571.795 496.92 571.722C496.89 571.649 496.874 571.569 496.873 571.488C496.872 571.407 496.887 571.327 496.916 571.253L497.91 568.433C497.951 568.311 497.955 568.176 497.921 568.051C497.887 567.926 497.817 567.819 497.724 567.75C497.63 567.681 497.52 567.654 497.411 567.673C497.303 567.693 497.204 567.758 497.131 567.857L495.326 570.081C495.283 570.147 495.228 570.201 495.165 570.238C495.101 570.274 495.032 570.293 494.962 570.293C494.892 570.293 494.823 570.274 494.76 570.238C494.696 570.201 494.641 570.147 494.598 570.081L493.124 567.857C492.809 567.38 492.13 567.857 492.263 568.433L492.842 571.253C492.857 571.337 492.857 571.423 492.843 571.506C492.829 571.59 492.801 571.67 492.761 571.74C492.721 571.81 492.669 571.87 492.609 571.916C492.549 571.962 492.482 571.993 492.412 572.008L489.944 572.604C489.414 572.723 489.348 573.616 489.862 573.736L492.246 574.331C492.313 574.348 492.375 574.382 492.429 574.431C492.483 574.481 492.526 574.544 492.557 574.617C492.587 574.69 492.603 574.77 492.604 574.851C492.605 574.932 492.59 575.013 492.561 575.086L491.567 577.906C491.526 578.028 491.522 578.163 491.556 578.288C491.59 578.413 491.66 578.52 491.753 578.589C491.847 578.658 491.957 578.685 492.066 578.666C492.174 578.646 492.273 578.581 492.346 578.482L494.151 576.258C494.197 576.198 494.253 576.15 494.316 576.117C494.379 576.084 494.447 576.067 494.515 576.067C494.583 576.067 494.651 576.084 494.714 576.117C494.776 576.15 494.833 576.198 494.879 576.258L496.353 578.482C496.668 578.959 497.347 578.482 497.231 577.906L496.651 575.086C496.637 575.004 496.636 574.919 496.649 574.836C496.662 574.754 496.688 574.675 496.727 574.605C496.765 574.535 496.815 574.475 496.873 574.428C496.931 574.381 496.997 574.348 497.065 574.331L499.533 573.736C500.112 573.616 500.112 572.723 499.615 572.604Z" fill="#263238"/>
<path d="M515.281 572.604L512.896 572.008C512.83 571.993 512.767 571.959 512.713 571.909C512.659 571.859 512.616 571.795 512.587 571.721C512.558 571.648 512.544 571.567 512.546 571.486C512.548 571.404 512.566 571.325 512.598 571.253L513.592 568.433C513.623 568.37 513.644 568.301 513.654 568.229C513.663 568.156 513.66 568.083 513.645 568.012C513.631 567.941 513.605 567.874 513.568 567.815C513.532 567.756 513.487 567.706 513.435 567.668C513.382 567.631 513.324 567.605 513.264 567.594C513.204 567.583 513.142 567.587 513.083 567.604C513.024 567.622 512.968 567.653 512.919 567.697C512.87 567.74 512.829 567.794 512.797 567.857L511.009 570.081C510.963 570.148 510.907 570.201 510.842 570.238C510.778 570.275 510.707 570.294 510.636 570.294C510.565 570.294 510.494 570.275 510.43 570.238C510.365 570.201 510.308 570.148 510.263 570.081L508.789 567.857C508.475 567.38 507.796 567.857 507.928 568.433L508.508 571.253C508.522 571.335 508.523 571.42 508.51 571.503C508.497 571.585 508.471 571.664 508.432 571.734C508.394 571.804 508.344 571.865 508.286 571.911C508.228 571.958 508.163 571.991 508.094 572.008L505.627 572.604C505.097 572.723 505.03 573.616 505.544 573.736L507.912 574.331C507.978 574.348 508.041 574.382 508.094 574.431C508.148 574.481 508.192 574.544 508.222 574.617C508.252 574.69 508.269 574.77 508.269 574.851C508.27 574.932 508.255 575.013 508.226 575.086L507.233 577.906C507.169 578.033 507.15 578.184 507.179 578.328C507.209 578.471 507.285 578.594 507.39 578.671C507.496 578.747 507.622 578.77 507.742 578.735C507.861 578.699 507.964 578.609 508.028 578.482L509.816 576.258C509.863 576.198 509.919 576.15 509.982 576.117C510.044 576.084 510.112 576.067 510.181 576.067C510.249 576.067 510.317 576.084 510.379 576.117C510.442 576.15 510.498 576.198 510.545 576.258L512.019 578.482C512.096 578.586 512.2 578.656 512.315 578.679C512.429 578.703 512.547 578.68 512.649 578.613C512.75 578.546 512.83 578.44 512.875 578.311C512.92 578.183 512.928 578.04 512.896 577.906L512.317 575.086C512.292 574.921 512.321 574.75 512.398 574.61C512.475 574.469 512.594 574.369 512.731 574.331L515.198 573.736C515.728 573.616 515.794 572.723 515.281 572.604Z" fill="#263238"/>
<path d="M477.508 531.473H448.097C447.195 531.492 446.329 531.906 445.664 532.638C444.999 533.37 444.58 534.369 444.487 535.445C444.44 535.952 444.484 536.465 444.615 536.95C444.747 537.435 444.963 537.881 445.25 538.257C445.537 538.633 445.888 538.931 446.279 539.131C446.67 539.332 447.093 539.429 447.518 539.417H476.928C477.831 539.399 478.697 538.985 479.362 538.253C480.027 537.521 480.445 536.522 480.538 535.445C480.583 534.939 480.538 534.428 480.405 533.944C480.272 533.461 480.056 533.017 479.769 532.641C479.483 532.266 479.133 531.967 478.743 531.766C478.353 531.565 477.932 531.465 477.508 531.473Z" fill="#263238"/>
<path d="M507.382 531.473H490.309C489.408 531.492 488.544 531.907 487.882 532.64C487.22 533.372 486.804 534.37 486.715 535.445C486.668 535.95 486.711 536.462 486.842 536.945C486.973 537.429 487.188 537.873 487.473 538.249C487.758 538.625 488.107 538.924 488.496 539.125C488.885 539.327 489.306 539.426 489.729 539.417H506.736C507.637 539.398 508.501 538.983 509.163 538.251C509.826 537.519 510.241 536.52 510.33 535.445C510.376 534.947 510.335 534.443 510.208 533.965C510.081 533.487 509.872 533.046 509.594 532.672C509.316 532.297 508.976 531.997 508.594 531.79C508.213 531.584 507.8 531.476 507.382 531.473Z" fill="#263238"/>
<path d="M529.92 711.504C519.525 716.253 510.14 723.715 502.447 733.35C497.775 729.001 492.206 726.255 486.334 725.406L485.556 725.267L485.225 729.954L485.655 730.153C492.095 732.996 497.541 738.373 501.106 745.405L501.669 746.518L502.281 745.326C509.139 732.196 518.818 721.522 530.301 714.424L530.682 714.185L530.897 711.087L529.92 711.504Z" fill="#263238"/>
<path opacity="0.2" d="M381.94 320.481C379.829 324.9 378.531 329.809 378.131 334.879L353.473 672.936H429.782L445.116 602.453L440.065 531.95L455.4 461.467L450.432 390.984L465.767 320.481H381.94Z" fill="black"/>
<path d="M443.725 371.124L459.059 300.621H266.086L250.768 371.124L255.802 441.607L240.484 512.09L245.518 582.593L230.2 653.076H423.157L438.492 582.593L433.441 512.09L448.776 441.607L443.725 371.124Z" fill="#007EA7"/>
<path opacity="0.7" d="M443.725 371.124L459.059 300.621H266.086L250.768 371.124L255.802 441.607L240.484 512.09L245.518 582.593L230.2 653.076H423.157L438.492 582.593L433.441 512.09L448.776 441.607L443.725 371.124Z" fill="white"/>
<path opacity="0.5" d="M443.725 371.124H250.768L266.086 300.621H459.06L443.725 371.124Z" fill="white"/>
<path opacity="0.5" d="M433.441 512.09H240.484L255.802 441.607H448.776L433.441 512.09Z" fill="white"/>
<path opacity="0.5" d="M423.158 653.076H230.184L245.519 582.593H438.492L423.158 653.076Z" fill="white"/>
<path opacity="0.2" d="M417.908 400.576C415.928 401.262 413.875 401.597 411.814 401.569C409.02 401.718 406.238 401.035 403.716 399.583C403.26 399.259 402.74 399.088 402.209 399.087C401.723 399.095 401.246 399.245 400.818 399.524H400.719C399.979 400.022 399.189 400.402 398.368 400.656C396.514 401.242 394.604 401.529 392.687 401.51C392.108 401.51 391.545 401.51 391.031 401.51C389.544 401.395 388.072 401.082 386.643 400.576C386.433 400.501 386.216 400.455 385.997 400.437C385.633 400.402 385.267 400.457 384.921 400.599C384.575 400.742 384.258 400.968 383.989 401.265C383.72 401.561 383.505 401.921 383.357 402.322C383.21 402.723 383.133 403.157 383.132 403.595V405.74H308.016C306.636 405.74 305.269 406.066 303.995 406.7C302.72 407.334 301.562 408.263 300.586 409.435C299.611 410.606 298.838 411.996 298.312 413.526C297.785 415.056 297.515 416.696 297.517 418.351V431.041C297.513 432.698 297.781 434.34 298.307 435.872C298.832 437.404 299.605 438.797 300.58 439.97C301.556 441.144 302.715 442.075 303.991 442.71C305.267 443.345 306.635 443.672 308.016 443.672H393.35H393.913C394.824 444.586 395.784 445.5 396.811 446.433C397.838 447.366 399.295 448.657 400.636 449.809C401.094 450.207 401.644 450.42 402.209 450.42C402.774 450.42 403.325 450.207 403.783 449.809C414.514 440.475 421.402 434.04 421.402 416.365V403.655C421.408 403.146 421.312 402.644 421.123 402.189C420.933 401.734 420.657 401.34 420.315 401.039C419.973 400.738 419.577 400.539 419.158 400.458C418.74 400.378 418.311 400.418 417.908 400.576Z" fill="black"/>
<path d="M391.71 398.769H306.393C300.585 398.769 295.877 404.415 295.877 411.38V424.071C295.877 431.035 300.585 436.682 306.393 436.682H391.71C397.518 436.682 402.226 431.035 402.226 424.071V411.38C402.226 404.415 397.518 398.769 391.71 398.769Z" fill="#007EA7"/>
<path d="M410.175 394.578C407.381 394.722 404.6 394.04 402.077 392.592C401.629 392.262 401.113 392.088 400.587 392.088C400.06 392.088 399.545 392.262 399.096 392.592C396.568 394.042 393.781 394.724 390.982 394.578C388.921 394.605 386.868 394.27 384.888 393.585C384.489 393.425 384.064 393.38 383.647 393.455C383.231 393.531 382.836 393.724 382.494 394.019C382.153 394.314 381.875 394.703 381.683 395.152C381.492 395.602 381.393 396.099 381.394 396.604V409.315C381.394 427.01 388.283 433.445 399.013 442.779C399.471 443.176 400.022 443.39 400.587 443.39C401.152 443.39 401.702 443.176 402.16 442.779C412.891 433.445 419.78 427.01 419.78 409.315V396.604C419.778 396.099 419.676 395.601 419.483 395.151C419.289 394.702 419.01 394.314 418.667 394.02C418.324 393.725 417.928 393.532 417.512 393.457C417.095 393.381 416.669 393.425 416.269 393.585C414.289 394.272 412.236 394.606 410.175 394.578Z" fill="#007EA7"/>
<path opacity="0.3" d="M410.175 394.578C407.381 394.722 404.6 394.04 402.077 392.592C401.629 392.262 401.113 392.088 400.587 392.088C400.06 392.088 399.545 392.262 399.096 392.592C396.568 394.042 393.781 394.724 390.982 394.578C388.921 394.605 386.868 394.27 384.888 393.585C384.489 393.425 384.064 393.38 383.647 393.455C383.231 393.531 382.836 393.724 382.494 394.019C382.153 394.314 381.875 394.703 381.683 395.152C381.492 395.602 381.393 396.099 381.394 396.604V409.315C381.394 427.01 388.283 433.445 399.013 442.779C399.471 443.176 400.022 443.39 400.587 443.39C401.152 443.39 401.702 443.176 402.16 442.779C412.891 433.445 419.78 427.01 419.78 409.315V396.604C419.778 396.099 419.676 395.601 419.483 395.151C419.289 394.702 419.01 394.314 418.667 394.02C418.324 393.725 417.928 393.532 417.512 393.457C417.095 393.381 416.669 393.425 416.269 393.585C414.289 394.272 412.236 394.606 410.175 394.578Z" fill="white"/>
<path opacity="0.2" d="M399.096 392.553C396.568 394.003 393.781 394.685 390.982 394.539C388.921 394.564 386.868 394.229 384.888 393.546C384.489 393.385 384.064 393.34 383.647 393.416C383.231 393.491 382.836 393.684 382.494 393.979C382.153 394.274 381.875 394.663 381.683 395.112C381.492 395.562 381.393 396.06 381.394 396.564V409.275C381.394 426.97 388.283 433.405 399.013 442.739C399.494 443.157 400.076 443.373 400.669 443.355V392.036C400.114 392.023 399.568 392.203 399.096 392.553Z" fill="white"/>
<path d="M415.971 405.859C409.515 408.892 403.766 413.75 399.212 420.019C396.036 417.211 392.313 415.427 388.398 414.836H387.885V417.874L388.166 417.993C392.52 419.878 396.273 423.35 398.897 427.923L399.311 428.638L399.659 427.864C403.466 419.379 409.264 412.419 416.335 407.845L416.583 407.706V405.72L415.971 405.859Z" fill="#263238"/>
<path d="M455.649 320.461H448.329C447.388 320.482 446.453 320.262 445.588 319.815C444.723 319.369 443.947 318.706 443.312 317.872C442.677 317.037 442.198 316.05 441.907 314.976C441.616 313.902 441.519 312.766 441.622 311.643L442.268 302.865C442.467 300.478 443.389 298.261 444.861 296.635C446.332 295.01 448.25 294.089 450.25 294.047H457.57C458.513 294.023 459.449 294.241 460.316 294.686C461.183 295.132 461.961 295.794 462.598 296.629C463.234 297.463 463.715 298.452 464.007 299.527C464.3 300.603 464.397 301.741 464.293 302.865L463.647 311.643C463.424 314.022 462.492 316.225 461.022 317.845C459.553 319.466 457.644 320.395 455.649 320.461Z" fill="#007EA7"/>
<path d="M458.695 302.845L457.106 300.74L453.098 305.149L449.753 300.74L447.849 302.845L451.21 307.254L447.219 311.663L448.809 313.748L452.8 309.339L456.162 313.748L458.049 311.663L454.688 307.254L458.695 302.845Z" fill="white"/>
<path d="M292.069 396.187C296.308 401.728 300.349 407.468 304.373 413.247C308.397 419.026 312.289 424.925 316.164 430.843C316.329 431.101 316.263 431.002 316.296 431.081C316.329 431.161 316.296 431.18 316.296 431.2C316.325 431.274 316.364 431.341 316.412 431.399C316.553 431.639 316.733 431.844 316.94 432.001C317.148 432.158 317.379 432.264 317.621 432.312C317.808 432.343 317.997 432.343 318.184 432.312C318.283 432.322 318.383 432.322 318.482 432.312H318.631C318.714 432.312 318.631 432.312 318.896 432.193L323.036 429.492C328.6 425.957 334.214 422.502 340.01 419.403L344.862 426.613C340.192 431.756 335.324 438.211 330.405 442.938L326.696 446.433C326.465 446.659 326.222 446.864 325.967 447.049C325.686 447.288 325.393 447.507 325.09 447.704C324.49 448.118 323.871 448.489 323.235 448.816C321.952 449.463 320.605 449.91 319.227 450.147C316.441 450.637 313.597 450.296 310.947 449.154C309.599 448.58 308.319 447.799 307.138 446.83C306.542 446.353 305.979 445.797 305.482 445.261C305.201 444.983 304.969 444.665 304.704 444.367L304.042 443.573C299.653 438.171 295.331 432.73 291.092 427.189C286.852 421.648 282.663 416.067 278.655 410.268L292.069 396.187Z" fill="#B55B52"/>
<path d="M337.824 423.773L341.683 408.898L351.851 414.975C351.851 414.975 350.36 425.818 342.974 427.705L337.824 423.773Z" fill="#B55B52"/>
<path d="M345.74 404.787L354.914 407.805L351.834 414.975L341.666 408.898L345.74 404.787Z" fill="#B55B52"/>
<path d="M238.613 400.239C237.52 406.554 236.162 412.81 234.755 419.046C233.347 425.282 231.807 431.459 230.201 437.635L229.605 439.959L229.306 441.11C229.266 441.276 229.211 441.436 229.141 441.587C228.952 442.226 228.846 442.896 228.826 443.573C228.791 445.016 229.127 446.437 229.787 447.644C230.112 448.174 230.472 448.672 230.863 449.134L232.238 450.941L234.953 454.576C236.725 457.038 238.514 459.501 240.203 462.083L234.424 470.027C232.039 468.398 229.754 466.631 227.468 464.883L224.074 462.182L222.418 460.812C221.854 460.335 221.391 460.017 220.48 459.123C217.24 455.812 215.004 451.308 214.121 446.314C213.677 443.768 213.57 441.154 213.806 438.568C213.806 437.933 213.972 437.218 214.055 436.582L214.237 435.391L214.585 433.008C215.512 426.633 216.506 420.277 217.615 413.962C218.725 407.646 219.917 401.351 221.325 395.135L238.613 400.239Z" fill="#B55B52"/>
<path d="M234.54 461.447L241.362 457.257L244.376 471.159C244.376 471.159 238.895 473.681 234.655 470.444L234.54 461.447Z" fill="#B55B52"/>
<path d="M250.801 452.788L251.116 465.578L243.482 471.556L240.832 457.515L250.801 452.788Z" fill="#B55B52"/>
<path d="M273.14 334.581C273.306 335.555 273.886 336.25 274.416 336.13C274.946 336.011 275.26 335.098 275.095 334.144C274.929 333.191 274.349 332.476 273.819 332.595C273.29 332.715 272.975 333.648 273.14 334.581Z" fill="#263238"/>
<path d="M273.803 336.27C275.294 339.039 277.094 341.552 279.152 343.737C278.673 344.356 278.087 344.842 277.435 345.161C276.782 345.48 276.08 345.624 275.376 345.584L273.803 336.27Z" fill="#A02724"/>
<path d="M269.216 329.855C269.121 329.853 269.027 329.819 268.948 329.756C268.868 329.693 268.806 329.604 268.767 329.499C268.729 329.394 268.716 329.278 268.731 329.165C268.746 329.052 268.788 328.947 268.852 328.862C269.37 328.158 270.02 327.612 270.748 327.266C271.476 326.921 272.262 326.787 273.041 326.876C273.105 326.89 273.167 326.919 273.221 326.962C273.276 327.005 273.323 327.06 273.36 327.125C273.397 327.189 273.423 327.262 273.436 327.338C273.45 327.415 273.451 327.494 273.439 327.571C273.429 327.647 273.406 327.72 273.372 327.785C273.338 327.851 273.294 327.908 273.241 327.952C273.189 327.996 273.129 328.028 273.067 328.044C273.004 328.061 272.939 328.062 272.876 328.047C272.258 327.976 271.635 328.084 271.059 328.36C270.483 328.636 269.97 329.074 269.564 329.636C269.475 329.76 269.351 329.838 269.216 329.855Z" fill="#263238"/>
<path d="M249.261 348.424C251.083 357.54 252.921 374.242 246.396 380.299C246.396 380.299 248.947 389.554 266.268 389.554C285.312 389.554 275.376 383.596 275.376 383.596C264.977 381.173 265.242 370.349 267.096 363.259L249.261 348.424Z" fill="#B55B52"/>
<path d="M244.359 381.987C243.233 379.465 241.975 376.565 244.558 375.652C247.406 374.659 265.672 372.812 271.054 374.679C269.398 378.194 272.197 382.623 272.197 382.623L244.359 381.987Z" fill="#263238"/>
<path d="M259.495 808.143H271.435L272.627 779.306H260.671L259.495 808.143Z" fill="#B55B52"/>
<path d="M183.667 804.171L195.772 804.946L203.125 776.526L191.02 775.751L183.667 804.171Z" fill="#B55B52"/>
<path d="M195.408 803.794L183.998 800.835C183.798 800.78 183.589 800.81 183.405 800.918C183.221 801.026 183.074 801.207 182.988 801.43L179.03 811.738C178.933 811.988 178.884 812.262 178.889 812.538C178.893 812.814 178.951 813.085 179.056 813.331C179.162 813.576 179.313 813.789 179.498 813.954C179.683 814.118 179.897 814.23 180.123 814.28C184.114 815.233 186.101 815.452 191.119 816.762C194.199 817.557 201.171 819.602 205.427 820.734C209.683 821.866 211.157 816.941 209.501 816.028C202.049 811.956 198.935 808.362 196.915 805.005C196.552 804.395 196.017 803.964 195.408 803.794Z" fill="#263238"/>
<path d="M270.806 806.693H259.462C259.257 806.696 259.059 806.782 258.899 806.937C258.74 807.092 258.629 807.307 258.584 807.547L256.531 818.609C256.478 818.877 256.477 819.156 256.527 819.424C256.578 819.693 256.679 819.944 256.823 820.159C256.966 820.373 257.149 820.546 257.357 820.663C257.565 820.78 257.792 820.838 258.021 820.834C262.112 820.834 267.957 820.456 273.174 820.456C279.185 820.456 284.368 820.854 291.39 820.854C295.646 820.854 296.838 815.69 295.05 815.213C286.919 813.088 280.295 812.85 273.273 807.666C272.539 807.08 271.686 806.744 270.806 806.693Z" fill="#263238"/>
<path d="M224.752 384.509C215.744 389.653 213.293 420.833 213.293 420.833L235.599 433.186C239.37 425.559 241.424 416.889 241.561 408.024C242.008 391.917 233.976 379.326 224.752 384.509Z" fill="#263238"/>
<path opacity="0.4" d="M236.808 403.734C232.784 411.241 233.165 422.839 234.556 432.63L235.55 433.186C239.317 425.558 241.371 416.888 241.511 408.024C241.511 407.07 241.511 406.038 241.511 405.184L236.808 403.734Z" fill="black"/>
<path d="M287.001 383.755C287.001 383.755 298.063 398.729 287.614 491.396H232.088C231.707 481.168 237.056 431.3 228.776 383.119C234.913 381.704 241.119 380.762 247.357 380.299C255.222 379.763 263.106 379.763 270.971 380.299C276.381 380.956 281.74 382.111 287.001 383.755Z" fill="#007EA7"/>
<path opacity="0.6" d="M287.001 383.755C287.001 383.755 298.063 398.729 287.614 491.396H232.088C231.707 481.168 237.056 431.3 228.776 383.119C234.913 381.704 241.119 380.762 247.357 380.299C255.222 379.763 263.106 379.763 270.971 380.299C276.381 380.956 281.74 382.111 287.001 383.755Z" fill="#FAFAFA"/>
<path opacity="0.2" d="M291.854 412.075L291.655 411.857L280.609 404.787C279.483 425.183 287.084 437.973 291.605 443.553C292.172 433.074 292.255 422.565 291.854 412.075Z" fill="black"/>
<path opacity="0.2" d="M272.627 779.306L272.014 794.182H260.058L260.671 779.306H272.627Z" fill="black"/>
<path opacity="0.2" d="M191.02 775.771L203.125 776.526L199.333 791.183L187.228 790.408L191.02 775.771Z" fill="black"/>
<path d="M245.419 339.169C248.085 351.085 249.145 358.255 255.355 363.22C264.595 370.687 276.088 362.107 276.452 349.457C276.767 338.077 272.362 320.461 261.681 318.058C259.323 317.498 256.884 317.673 254.599 318.566C252.313 319.459 250.256 321.039 248.625 323.157C246.994 325.275 245.842 327.858 245.281 330.662C244.72 333.465 244.767 336.394 245.419 339.169Z" fill="#B55B52"/>
<path d="M267.924 491.396C267.924 491.396 256.134 586.545 249.708 622.214C242.587 661.338 204.599 790.428 204.599 790.428L186.002 785.602C186.002 785.602 209.832 680.344 215.81 625.769C218.128 604.459 220.927 570.161 224.471 541.503C227.899 513.699 232.122 491.416 232.122 491.416L267.924 491.396Z" fill="#263238"/>
<path d="M209.054 782.98L205.576 791.044L184.677 785.602L186.433 778.075L209.054 782.98Z" fill="#007EA7"/>
<path opacity="0.6" d="M209.054 782.98L205.576 791.044L184.677 785.602L186.433 778.075L209.054 782.98Z" fill="white"/>
<path opacity="0.6" d="M260.472 525.297C246.843 528.494 248.284 589.445 249.923 620.784C253.865 598.62 259.611 556.001 263.536 525.734C262.586 525.173 261.505 525.019 260.472 525.297Z" fill="black"/>
<path d="M287.614 491.396C287.614 491.396 293.162 584.5 292.035 622.472C290.86 661.973 275.244 791.282 275.244 791.282H257.657C257.657 791.282 257.011 664.178 256.233 625.471C255.372 583.169 251.116 491.376 251.116 491.376L287.614 491.396Z" fill="#263238"/>
<path d="M278.622 782.901C278.705 782.901 277.628 791.659 277.628 791.659H256.233L255.653 783.834L278.622 782.901Z" fill="#007EA7"/>
<path opacity="0.6" d="M278.622 782.901C278.705 782.901 277.628 791.659 277.628 791.659H256.233L255.653 783.834L278.622 782.901Z" fill="white"/>
<path d="M280.526 401.172C280.526 426.156 291.605 436.443 291.605 436.443L309.672 415.352C305.396 406.781 300.526 398.656 295.116 391.063C284.666 376.704 280.526 385.125 280.526 401.172Z" fill="#263238"/>
<path opacity="0.2" d="M275.757 353.985C275.389 355.237 274.771 356.362 273.957 357.262C273.143 358.162 272.158 358.809 271.087 359.148C269.91 359.436 268.841 360.171 268.039 361.244C267.237 362.317 266.744 363.671 266.633 365.106C268.777 364.246 270.721 362.791 272.307 360.858C273.893 358.925 275.075 356.57 275.757 353.985Z" fill="black"/>
<path d="M271.087 315.436C274.797 309.816 269.083 309.478 269.083 309.478C270.574 302.786 263.884 306.38 263.884 306.38C259.876 299.747 257.607 307.83 257.607 307.83C253.451 302.21 252.639 311.385 252.639 311.385C248.466 304.255 246.347 314.543 246.347 314.543C242.505 307.135 240.153 316.767 240.153 316.767C232.221 313.371 235.98 323.261 235.98 323.261C229.224 323.48 234.655 329.775 234.655 329.775C226.541 329.775 233.695 335.356 233.695 335.356C227.253 340.42 235.351 341.791 235.351 341.791C230.101 351.721 239.126 347.987 239.126 347.987C235.467 357.758 243.564 353.448 243.564 353.448C243.051 362.862 247.572 360.3 249.758 358.552C250.172 360.538 250.967 362.524 252.424 362.683C255.256 363.14 255.736 356.725 255.736 356.725C255.736 356.725 258.353 359.188 260.555 357.857C262.757 356.527 261.929 353.17 261.929 353.17C262.408 353.599 262.989 353.831 263.585 353.831C264.182 353.831 264.763 353.599 265.242 353.17C266.185 352.297 266.185 345.981 264.993 343.757L269.299 341.771C269.299 341.771 272.495 341.235 271.071 336.17C270.211 333.26 270.136 330.099 270.855 327.134C275.724 324.393 271.716 321.176 271.716 321.176C277.363 316.827 271.087 315.436 271.087 315.436Z" fill="#263238"/>
<path d="M262.36 339.606C263.034 342.569 264.507 345.181 266.55 347.034C269.249 349.457 271.269 347.034 271.071 343.399C270.905 340.103 269.282 334.879 266.301 333.886C263.321 332.893 261.648 336.091 262.36 339.606Z" fill="#B55B52"/>
</svg>
