<svg width="938" height="833" viewBox="0 0 938 833" fill="none" xmlns="http://www.w3.org/2000/svg">
<path d="M58.7432 628.207H719.605C837.997 628.207 937.565 730.764 937.565 827.695C937.565 846.294 742.323 837.393 719.605 837.393L-2.16574 849.675C-45.8528 849.675 -2.16574 808.397 -2.16574 772.63V678.075C-2.16574 650.534 -45.1515 625.454 58.7432 628.207Z" fill="white"/>
<path d="M789.821 409.09H274.068C269.508 409.09 265.811 412.786 265.811 417.347C265.811 421.907 269.508 425.604 274.068 425.604H288.677V623.14C288.677 627.7 292.374 631.397 296.934 631.397C301.494 631.397 305.191 627.7 305.191 623.14L305.317 425.604H757.427V623.14C757.427 627.7 761.124 631.397 765.685 631.397C770.245 631.397 773.942 627.7 773.942 623.14L773.941 429.957L776.344 425.603H789.821C794.381 425.603 798.078 421.907 798.078 417.346C798.078 412.786 794.381 409.089 789.821 409.089V409.09Z" fill="#CCCCCC"/>
<path d="M560.006 413.411H403.779C397.48 413.404 392.376 408.3 392.369 402.001V315.989C392.376 309.69 397.48 304.586 403.779 304.579H560.006C566.304 304.586 571.409 309.69 571.416 315.989V402.001C571.409 408.3 566.304 413.404 560.006 413.411H560.006Z" fill="#3F3D56"/>
<path d="M560.005 313.36H403.78C402.329 313.363 401.153 314.539 401.151 315.99V402.004C401.153 403.455 402.329 404.63 403.78 404.633L560.005 404.633C561.456 404.63 562.631 403.455 562.634 402.004L562.634 315.99C562.631 314.539 561.456 313.363 560.005 313.36H560.005Z" fill="white"/>
<path d="M495.217 374.257C495.217 374.257 476.515 369.948 466.228 377.849C455.942 385.749 479.32 403.706 479.32 403.706L495.217 374.257Z" fill="#2F2E41"/>
<circle cx="482.808" cy="348.473" r="17.6412" fill="#A0616A"/>
<path d="M469.167 323.71C471.566 319.638 476.044 317.256 480.761 317.541C483.181 317.845 485.542 318.506 487.768 319.503L499.3 324.001C502.284 325.165 505.552 326.591 506.847 329.521C508.049 332.24 507.152 335.38 506.245 338.211L501.93 351.668C501.452 348.623 500.632 345.641 499.485 342.779C498.319 339.898 496.213 337.497 493.509 335.965C490.513 334.428 486.983 334.46 483.62 334.622C478.857 334.851 473.679 335.457 470.295 338.816C468.499 340.724 467.281 343.103 466.783 345.675C466.293 348.234 466.046 350.834 466.046 353.439C464.093 350.082 462.448 346.555 461.131 342.901C460.048 340.181 459.43 337.297 459.305 334.371C459.191 331.42 460.171 328.532 462.055 326.258C464.005 323.991 467.072 323.026 469.969 323.767L469.167 323.71Z" fill="#2F2E41"/>
<path d="M524.931 389.555C524.592 388.336 523.556 387.44 522.302 387.281C522.261 387.252 522.219 387.227 522.174 387.204L495.839 372.446C494.277 371.57 492.302 372.079 491.357 373.6L484.154 385.261L473.306 374.413L473.133 374.24C471.984 373.091 470.175 372.933 468.844 373.865L447.2 389.021C447.162 389.021 447.124 389.034 447.086 389.034C444.952 389.39 443.352 391.18 443.237 393.34L442.678 404.634H529.111L524.931 389.555Z" fill="#00A8E8"/>
<path d="M573.172 402.879H556.495C556.495 401.91 555.709 401.124 554.739 401.124H549.473C548.504 401.124 547.718 401.91 547.718 402.879H542.452C542.452 401.91 541.666 401.124 540.696 401.124L535.431 401.124C534.462 401.124 533.676 401.91 533.676 402.879H528.41C528.41 401.91 527.624 401.124 526.655 401.124H521.388C520.419 401.124 519.633 401.91 519.633 402.879H514.367C514.367 401.909 513.581 401.123 512.611 401.123H507.345C506.376 401.123 505.59 401.909 505.59 402.879H500.324C500.324 401.909 499.538 401.123 498.568 401.123H493.302C492.333 401.123 491.547 401.909 491.547 402.879H486.281C486.281 401.909 485.495 401.123 484.526 401.123H479.26C478.29 401.123 477.504 401.909 477.504 402.879H472.238C472.238 401.909 471.452 401.123 470.483 401.123H465.217C464.247 401.123 463.461 401.909 463.461 402.879H458.195C458.195 401.909 457.41 401.123 456.44 401.123H451.174C450.205 401.123 449.419 401.909 449.419 402.879L444.153 402.879C444.153 401.909 443.367 401.123 442.397 401.123H437.131C436.162 401.123 435.376 401.909 435.376 402.879H430.11C430.11 401.909 429.324 401.123 428.354 401.123H423.088C422.119 401.123 421.333 401.909 421.333 402.879H416.066C416.066 401.909 415.28 401.123 414.311 401.123H409.045C408.076 401.123 407.29 401.909 407.29 402.879H390.614C387.706 402.879 385.348 405.237 385.348 408.145C385.348 411.053 387.706 413.411 390.614 413.411H573.172C576.08 413.411 578.438 411.053 578.438 408.145C578.438 405.237 576.08 402.879 573.172 402.879V402.879Z" fill="#3F3D56"/>
<path d="M363.467 372.297V407.264H275.863C269.472 407.486 263.468 404.204 260.206 398.703C256.945 393.202 256.945 386.359 260.206 380.858C263.468 375.357 269.472 372.074 275.863 372.297H363.467Z" fill="#F2F2F2"/>
<path d="M365.619 406.995C365.619 407.737 365.017 408.339 364.274 408.34H274.302C264.127 408.34 255.878 400.091 255.878 389.915C255.878 379.739 264.127 371.49 274.302 371.49L364.274 371.49C365.017 371.49 365.619 372.092 365.619 372.835C365.619 373.578 365.017 374.18 364.274 374.18H274.302C265.612 374.18 258.567 381.225 258.567 389.915C258.567 398.605 265.612 405.65 274.302 405.65L364.274 405.65C365.017 405.65 365.619 406.252 365.619 406.995Z" fill="#00A8E8"/>
<path d="M363.467 380.366H269.326C269.177 380.366 269.057 380.246 269.057 380.097C269.057 379.949 269.177 379.828 269.326 379.828H363.467C363.616 379.828 363.736 379.949 363.736 380.097C363.736 380.246 363.616 380.366 363.467 380.366H363.467Z" fill="#CCCCCC"/>
<path d="M363.467 386.822H269.326C269.177 386.822 269.057 386.702 269.057 386.553C269.057 386.405 269.177 386.284 269.326 386.284L363.467 386.284C363.616 386.284 363.736 386.405 363.736 386.553C363.736 386.702 363.616 386.822 363.467 386.822L363.467 386.822Z" fill="#CCCCCC"/>
<path d="M363.467 393.277H269.326C269.177 393.277 269.057 393.156 269.057 393.008C269.057 392.859 269.177 392.739 269.326 392.739H363.467C363.616 392.739 363.736 392.859 363.736 393.008C363.736 393.156 363.616 393.277 363.467 393.277H363.467Z" fill="#CCCCCC"/>
<path d="M363.467 399.732H269.326C269.177 399.732 269.057 399.612 269.057 399.463C269.057 399.315 269.177 399.194 269.326 399.194H363.467C363.616 399.194 363.736 399.315 363.736 399.463C363.736 399.612 363.616 399.732 363.467 399.732H363.467Z" fill="#CCCCCC"/>
<path d="M346.953 335.458V370.424H259.349C252.957 370.647 246.954 367.364 243.692 361.863C240.43 356.362 240.43 349.52 243.692 344.019C246.954 338.518 252.957 335.235 259.349 335.458L346.953 335.458Z" fill="#F2F2F2"/>
<path d="M349.105 370.155C349.105 370.898 348.503 371.5 347.76 371.5H257.788C247.613 371.5 239.364 363.251 239.364 353.076C239.364 342.9 247.613 334.651 257.788 334.651H347.76C348.503 334.651 349.105 335.253 349.105 335.996C349.105 336.738 348.503 337.341 347.76 337.341H257.788C249.098 337.34 242.053 344.385 242.053 353.075C242.053 361.766 249.098 368.81 257.788 368.81L347.76 368.81C348.503 368.811 349.105 369.413 349.105 370.155Z" fill="#3F3D56"/>
<path d="M346.953 343.527H252.812C252.663 343.527 252.543 343.406 252.543 343.258C252.543 343.109 252.663 342.989 252.812 342.989H346.953C347.101 342.989 347.222 343.109 347.222 343.258C347.222 343.406 347.101 343.527 346.953 343.527H346.953Z" fill="#CCCCCC"/>
<path d="M346.953 349.983H252.812C252.663 349.983 252.543 349.862 252.543 349.714C252.543 349.565 252.663 349.445 252.812 349.445H346.953C347.101 349.445 347.222 349.565 347.222 349.714C347.222 349.862 347.101 349.983 346.953 349.983H346.953Z" fill="#CCCCCC"/>
<path d="M346.953 356.437H252.812C252.663 356.437 252.543 356.317 252.543 356.168C252.543 356.02 252.663 355.899 252.812 355.899H346.953C347.101 355.899 347.222 356.02 347.222 356.168C347.222 356.317 347.101 356.437 346.953 356.437H346.953Z" fill="#CCCCCC"/>
<path d="M346.953 362.893H252.812C252.663 362.893 252.543 362.773 252.543 362.624C252.543 362.475 252.663 362.355 252.812 362.355H346.953C347.101 362.355 347.222 362.475 347.222 362.624C347.222 362.773 347.101 362.893 346.953 362.893L346.953 362.893Z" fill="#CCCCCC"/>
<path d="M448.864 531.552V501.064C448.864 498.258 446.589 495.983 443.783 495.982H328.183C325.376 495.982 323.102 498.257 323.101 501.064L323.101 531.552H448.864Z" fill="#CCCCCC"/>
<rect x="323.101" y="542.984" width="125.762" height="39.3801" fill="#CCCCCC"/>
<path d="M323.101 593.798V624.285C323.101 627.092 325.376 629.367 328.183 629.367H443.782C446.589 629.367 448.864 627.092 448.864 624.286L448.864 593.798H323.101Z" fill="#CCCCCC"/>
<circle cx="385.347" cy="515.037" r="3.81098" fill="white"/>
<circle cx="385.347" cy="565.85" r="3.81098" fill="white"/>
<circle cx="385.552" cy="615.587" r="3.81098" fill="white"/>
<path d="M434.606 461.22V496.187H347.001C340.61 496.409 334.606 493.127 331.345 487.626C328.083 482.125 328.083 475.282 331.345 469.781C334.606 464.28 340.61 460.997 347.001 461.22H434.606Z" fill="#F2F2F2"/>
<path d="M436.758 495.918C436.757 496.66 436.155 497.262 435.413 497.262H345.441C335.265 497.262 327.016 489.014 327.016 478.838C327.016 468.662 335.265 460.413 345.441 460.413H435.413C436.156 460.413 436.758 461.015 436.758 461.758C436.758 462.501 436.156 463.103 435.413 463.103L345.441 463.103C336.751 463.103 329.706 470.147 329.706 478.838C329.706 487.528 336.751 494.573 345.441 494.573L435.413 494.573C436.155 494.573 436.757 495.175 436.758 495.918Z" fill="#3F3D56"/>
<path d="M434.606 469.289H340.464C340.316 469.289 340.195 469.169 340.195 469.02C340.195 468.872 340.316 468.751 340.464 468.751H434.605C434.754 468.751 434.874 468.872 434.874 469.02C434.874 469.169 434.754 469.289 434.605 469.289H434.606Z" fill="#CCCCCC"/>
<path d="M434.606 475.745H340.464C340.316 475.745 340.195 475.625 340.195 475.476C340.195 475.327 340.316 475.207 340.464 475.207H434.605C434.754 475.207 434.874 475.327 434.874 475.476C434.874 475.625 434.754 475.745 434.605 475.745H434.606Z" fill="#CCCCCC"/>
<path d="M434.606 482.199H340.464C340.316 482.199 340.195 482.079 340.195 481.93C340.195 481.782 340.316 481.661 340.464 481.661H434.605C434.754 481.661 434.874 481.782 434.874 481.93C434.874 482.079 434.754 482.199 434.605 482.199H434.606Z" fill="#CCCCCC"/>
<path d="M434.606 488.655H340.464C340.316 488.655 340.195 488.535 340.195 488.386C340.195 488.238 340.316 488.117 340.464 488.117H434.605C434.754 488.117 434.874 488.238 434.874 488.386C434.874 488.535 434.754 488.655 434.605 488.655H434.606Z" fill="#CCCCCC"/>
<path d="M316.505 232.997V10.0547C316.511 4.78026 320.785 0.505997 326.059 0.5L502.29 0.500015C507.564 0.506088 511.838 4.78032 511.844 10.0547L511.845 232.997C511.838 238.271 507.564 242.546 502.29 242.552H326.06C320.785 242.546 316.51 238.272 316.504 232.997H316.505ZM326.059 2.62328C321.957 2.62785 318.632 5.95232 318.628 10.0547V232.997C318.632 237.099 321.957 240.424 326.059 240.428L502.29 240.428C506.392 240.424 509.717 237.099 509.721 232.997V10.0547C509.717 5.95235 506.392 2.62791 502.29 2.62328H326.059Z" fill="#E6E6E6"/>
<path d="M424.058 102.885V57.1089C424.061 54.4716 426.198 52.3344 428.835 52.3315L467.627 52.3315C470.265 52.3344 472.402 54.4716 472.405 57.1089L472.405 102.886C472.402 105.523 470.265 107.66 467.627 107.663L428.835 107.663C426.198 107.66 424.06 105.523 424.058 102.885H424.058Z" fill="#00A8E8"/>
<path d="M348.682 124.119V78.3411C348.685 75.7039 350.822 73.5667 353.459 73.5638H392.251C394.888 73.5667 397.026 75.7039 397.029 78.3411V124.118C397.026 126.755 394.889 128.893 392.251 128.896H353.459C350.822 128.893 348.685 126.756 348.682 124.119L348.682 124.119Z" fill="#CCCCCC"/>
<path d="M409.195 188.877V143.101C409.198 140.464 411.335 138.327 413.973 138.324L452.765 138.324C455.402 138.327 457.539 140.464 457.542 143.101L457.542 188.878C457.539 191.515 455.402 193.653 452.765 193.655H413.973C411.335 193.653 409.198 191.515 409.195 188.877Z" fill="#FF6584"/>
<path d="M641.013 398.167H601.1C600.721 398.167 600.347 398.254 600.007 398.421L589.933 403.465C589.256 403.753 588.816 404.418 588.816 405.154C588.816 405.89 589.256 406.555 589.933 406.844L600.007 411.887C600.347 412.054 600.721 412.141 601.1 412.141H641.013C642.158 412.207 643.143 411.341 643.224 410.197V400.111C643.143 398.967 642.158 398.101 641.013 398.167Z" fill="#3F3D56"/>
<path d="M643.224 400.111V410.197C643.143 411.341 642.158 412.207 641.013 412.141L633.061 412.141V398.167H641.013C642.158 398.101 643.143 398.967 643.224 400.111H643.224Z" fill="#00A8E8"/>
<path d="M640.712 322.71C644.369 321.132 648.525 321.189 652.137 322.866C655.749 324.543 658.474 327.682 659.628 331.494C659.806 332.091 659.942 332.7 660.035 333.317L715.85 360.995L728.767 352.435L744.839 370.937L725.116 386.955C720.246 390.88 713.378 391.145 708.22 387.607L651.589 348.445C651.168 348.624 650.738 348.781 650.3 348.915C646.488 350.069 642.365 349.54 638.966 347.464C635.567 345.387 633.216 341.959 632.502 338.04C632.398 337.478 632.329 336.91 632.296 336.339C631.974 330.483 635.332 325.045 640.712 322.71H640.712Z" fill="#FFB8B8"/>
<path d="M756.966 493.122H695.978C695.978 494.875 633.122 496.298 633.122 496.298C632.136 497.04 631.236 497.893 630.442 498.838C628.054 501.686 626.749 505.285 626.757 509.001V511.542C626.761 520.31 633.868 527.417 642.637 527.421H756.966C765.733 527.413 772.837 520.308 772.845 511.542V509.001C772.833 500.236 765.731 493.134 756.966 493.122Z" fill="#3F3D56"/>
<path d="M723.654 625H707.14V518.293H723.654V625Z" fill="#3F3D56"/>
<path d="M643.623 632.917C643.623 634.702 668.647 633.608 699.517 633.608C730.386 633.608 755.411 634.702 755.411 632.917C755.411 631.133 730.386 616.983 699.517 616.983C668.647 616.983 643.623 631.133 643.623 632.917Z" fill="#3F3D56"/>
<path d="M658.531 620.411L642.958 620.409L635.548 580.017L658.534 580.018L658.531 620.411Z" fill="#FFB8B8"/>
<path d="M662.503 635.506L612.287 635.504V634.869C612.287 624.074 621.038 615.323 631.833 615.324H631.834L662.504 615.325L662.503 635.506Z" fill="#2F2E41"/>
<path d="M635.239 595.363L604.19 525.739C598.815 513.57 603.691 499.312 615.393 492.984L682.737 456.872L713.468 454.258L741.815 451.681L742.019 452.028C742.281 452.469 748.376 462.997 744.256 474.54C741.131 483.296 733.002 490.135 720.096 494.867C689.971 505.913 655.17 515.354 641.607 518.9C640.394 519.21 639.372 520.023 638.798 521.135C638.222 522.234 638.132 523.522 638.549 524.691L667.393 589.496C668.004 591.161 667.806 593.016 666.859 594.516C665.911 596.016 664.321 596.991 662.554 597.155L641.001 598.724C640.818 598.741 640.636 598.75 640.454 598.75C638.2 598.749 636.156 597.422 635.239 595.363H635.239Z" fill="#2F2E41"/>
<path d="M666.153 620.411L650.58 620.409L643.17 580.017L666.156 580.018L666.153 620.411Z" fill="#FFB8B8"/>
<path d="M670.125 635.506L619.909 635.504V634.869C619.909 624.074 628.66 615.323 639.455 615.324H639.456L670.126 615.325L670.125 635.506Z" fill="#2F2E41"/>
<path d="M644.131 599.174L613.083 529.55C607.707 517.381 612.583 503.124 624.285 496.795L691.63 460.683L722.36 458.069L750.707 455.492L750.912 455.839C751.173 456.28 757.268 466.807 753.148 478.351C750.023 487.107 741.894 493.946 728.988 498.678C698.863 509.724 664.063 519.165 650.499 522.711C649.287 523.021 648.264 523.834 647.69 524.946C647.115 526.044 647.024 527.333 647.441 528.502L676.285 593.307C676.896 594.972 676.698 596.827 675.751 598.327C674.803 599.827 673.213 600.802 671.446 600.966L649.893 602.535C649.71 602.552 649.528 602.561 649.346 602.561C647.092 602.56 645.048 601.233 644.131 599.174Z" fill="#2F2E41"/>
<path d="M628.656 386.482C615.609 369.127 605.295 349.879 598.072 329.404C597.208 326.875 598.3 324.091 600.653 322.824L645.299 298.902C646.763 298.112 648.509 298.041 650.032 298.71C651.583 299.384 652.737 300.736 653.158 302.373C658.355 322.104 668.123 340.333 681.672 355.588C682.802 356.846 683.289 358.556 682.991 360.221C682.704 361.859 681.678 363.274 680.209 364.054L635.562 387.977C633.204 389.234 630.283 388.601 628.656 386.482V386.482Z" fill="#CCCCCC"/>
<path d="M631.702 384.192C632.197 384.811 633.062 384.99 633.762 384.618L678.409 360.695C678.848 360.466 679.155 360.044 679.238 359.556C679.332 359.04 679.179 358.509 678.825 358.123C664.876 342.419 654.821 323.652 649.471 303.34C649.346 302.831 648.99 302.411 648.508 302.203C648.055 302 647.533 302.022 647.098 302.262L602.453 326.183C601.755 326.56 601.424 327.38 601.665 328.136C608.759 348.244 618.888 367.148 631.702 384.192V384.192Z" fill="white"/>
<path d="M776.976 380.101L742.011 393.388L733.474 369.675C731.134 363.174 733.817 355.933 739.829 352.526V352.526C745.914 349.078 753.605 350.579 757.947 356.063L776.976 380.101Z" fill="#00A8E8"/>
<path d="M688.041 474.054C686.552 473.001 685.588 471.359 685.394 469.546C680.916 427.74 684.035 395.023 694.929 369.527C698.817 360.617 706.572 353.98 715.974 351.514L744.238 350.087L744.385 350.158C757.481 356.573 764.822 370.816 762.448 385.204C753.357 409.166 745.745 434.115 751.55 454.241C752.042 455.941 751.82 457.768 750.935 459.301C750.077 460.783 748.645 461.845 746.977 462.235L693.142 475.041C691.379 475.461 689.52 475.101 688.04 474.054L688.041 474.054Z" fill="#00A8E8"/>
<circle cx="734.805" cy="308.329" r="31.2005" fill="#FFB8B8"/>
<path d="M648.229 333.042L623.913 343.775C621.987 344.623 619.739 343.752 618.887 341.828L618.286 340.465C617.438 338.54 618.31 336.292 620.233 335.44L644.549 324.706C646.475 323.859 648.723 324.73 649.575 326.654L650.176 328.016C651.024 329.942 650.152 332.19 648.229 333.042H648.229Z" fill="#CCCCCC"/>
<path d="M657.121 349.556L632.805 360.29C630.879 361.137 628.631 360.266 627.78 358.342L627.178 356.98C626.331 355.054 627.202 352.806 629.126 351.954L653.442 341.221C655.367 340.373 657.615 341.244 658.467 343.168L659.068 344.53C659.916 346.456 659.045 348.704 657.121 349.556H657.121Z" fill="#CCCCCC"/>
<path d="M675.874 414.059L621.663 371.292C621.232 371.444 620.792 371.574 620.347 371.681C616.478 372.586 612.406 371.805 609.146 369.532C605.863 367.257 603.721 363.677 603.268 359.708C602.52 353.252 606.312 347.129 612.426 344.924C616.175 343.579 620.319 343.897 623.818 345.798C627.318 347.7 629.84 351.003 630.752 354.88C630.892 355.487 630.989 356.104 631.043 356.725L685.009 387.857L698.438 380.126L713.315 399.602L692.464 414.464C687.451 418.007 680.708 417.843 675.874 414.06L675.874 414.059Z" fill="#FFB8B8"/>
<path d="M719.93 405.667L688.999 384.634L703.535 364.046C707.52 358.402 714.992 356.449 721.229 359.422V359.422C727.543 362.431 730.722 369.594 728.717 376.295L719.93 405.667Z" fill="#00A8E8"/>
<path d="M723.366 303.683C715.347 309.171 704.817 314.813 696.627 308.968C691.249 305.131 689.555 298.024 691.736 291.787C695.657 280.572 706.432 275.635 716.736 271.85C730.131 266.93 744.716 263.016 758.544 266.54C772.372 270.063 784.593 283.451 782.097 297.501C780.089 308.8 769.431 318.201 770.944 329.576C772.467 341.025 785.342 347.051 796.709 349.097C808.075 351.143 820.794 351.8 828.963 359.965C839.384 370.38 836.781 388.996 826.976 399.992C817.171 410.989 802.374 415.973 788.036 419.362C769.038 423.851 748.492 426.211 730.449 418.76C712.407 411.309 698.366 391.252 703.593 372.444C705.8 364.5 711.001 357.786 716.027 351.249C721.054 344.713 726.143 337.878 728.06 329.858C729.658 323.176 728.476 315.416 724.044 310.404C722.39 308.603 722.085 305.943 723.289 303.815L723.366 303.683Z" fill="#2F2E41"/>
<path d="M137.34 455.275C120.99 461.022 102.825 457.823 89.4222 446.834C72.6386 432.747 67.3764 409.539 63.0949 388.05C58.8736 366.862 54.6522 345.675 50.4308 324.488L76.9447 342.744C96.0119 355.873 115.508 369.423 128.711 388.439C141.913 407.456 147.675 433.415 137.068 453.992" fill="#3EB90F"/>
<path d="M135.074 532.23C137.758 512.683 140.517 492.885 138.635 473.128C136.963 455.582 131.61 438.445 120.712 424.393C114.927 416.948 107.888 410.57 99.9113 405.544C97.8314 404.231 95.917 407.528 97.9879 408.835C111.79 417.557 122.465 430.438 128.475 445.619C135.112 462.501 136.178 480.904 135.034 498.837C134.342 509.682 132.876 520.456 131.399 531.217C131.158 532.226 131.739 533.251 132.73 533.561C133.744 533.834 134.789 533.24 135.074 532.23L135.074 532.23Z" fill="#1F5F06"/>
<path d="M109.227 497.64C102.214 508.298 90.149 514.525 77.3991 514.067C61.2874 513.302 47.8553 502.057 35.7639 491.382L0 459.805L23.6697 458.672C40.6916 457.858 58.1526 457.098 74.3654 462.347C90.5782 467.596 105.53 480.229 108.495 497.011" fill="#3EB90F"/>
<path d="M142.658 543.466C129.742 520.611 114.76 495.211 87.9898 487.093C80.5464 484.843 72.7416 484.037 64.9955 484.718C62.5541 484.929 63.1637 488.692 65.6006 488.482C78.5847 487.404 91.5438 490.833 102.296 498.19C112.643 505.233 120.699 515.024 127.517 525.407C131.694 531.767 135.435 538.397 139.177 545.018C140.372 547.134 143.868 545.607 142.658 543.466Z" fill="#1F5F06"/>
<path d="M163.354 567.522C162.467 557.243 155.933 548.312 146.404 544.355V531.143H124.243V544.772C115.195 548.918 109.074 557.607 108.216 567.522L103.006 628.096H168.564L163.354 567.522Z" fill="#F2F2F2"/>
</svg>
